<svg xmlns="http://www.w3.org/2000/svg" viewBox="249.05 170.42 293.90 25.16" role="img" aria-label="Big Grove Brewery" xmlns:c2pa="http://c2pa.org/manifest"><metadata><c2pa:manifest>AAAWgmp1bWIAAAAeanVtZGMycGEAEQAQgAAAqgA4m3EDYzJwYQAAABZcanVtYgAAAEdqdW1kYzJtYQARABCAAACqADibcQN1cm46YzJwYTpjMjhhODBhZC04MDY3LTRlZmItOTA4Zi03ODRkNjRkNGI0NzcAAAADl2p1bWIAAAApanVtZGMyYXMAEQAQgAAAqgA4m3EDYzJwYS5hc3NlcnRpb25zAAAAALxqdW1iAAAARGp1bWRjYm9yABEAEIAAAKoAOJtxE2MycGEuaW5ncmVkaWVudC52MwAAAAAYYzJzaAiqIgnskkJBc1jJL0/HdyAAAABwY2JvcqNpZGM6Zm9ybWF0bWltYWdlL3N2Zyt4bWxqaW5zdGFuY2VJRHgseG1wOmlpZDo2YjI4OGFhZC0zNmMzLTQ5NjktYTgwNC1jOWE1ODUxZThmOTFscmVsYXRpb25zaGlwaHBhcmVudE9mAAAB4mp1bWIAAABBanVtZGNib3IAEQAQgAAAqgA4m3ETYzJwYS5hY3Rpb25zLnYyAAAAABhjMnNoBSZ4JfIL77WDt8fRY/B2JgAAAZljYm9yomdhY3Rpb25zgqJmYWN0aW9ua2MycGEub3BlbmVkanBhcmFtZXRlcnOha2luZ3JlZGllbnRzgaJjdXJseC1zZWxmI2p1bWJmPWMycGEuYXNzZXJ0aW9ucy9jMnBhLmluZ3JlZGllbnQudjNkaGFzaFggmNZSDIxhy0thuObef4Mhrq6niS40FkDaLZ+wSpzj3GCkZmFjdGlvbngdY29tLmFudGhyb3BpYy5jbGF1ZGUucHJvdmlkZWRqcGFyYW1ldGVyc6F4H2NvbS5hbnRocm9waWMub3JpZ2luLWNvbmZpZGVuY2VndW5rbm93bmtkZXNjcmlwdGlvbnhmQ2xhdWRlIHByb3ZpZGVkIHRoaXMgZmlsZSBhdCB0aGUgcmVxdWVzdCBvZiBhIHVzZXIgYW5kIG1heSBoYXZlIGNyZWF0ZWQgb3IgbW9kaWZpZWQgdGhlIGZpbGUgY29udGVudHMubXNvZnR3YXJlQWdlbnShZG5hbWVmQ2xhdWRlcmFsbEFjdGlvbnNJbmNsdWRlZPUAAADIanVtYgAAAEBqdW1kY2JvcgARABCAAACqADibcRNjMnBhLmhhc2guZGF0YQAAAAAYYzJzaBH3oF0Mb5qJmuFfqXsn498AAACAY2JvcqVjYWxnZnNoYTI1NmNwYWRNAAAAAAAAAAAAAAAAAGRoYXNoWCC9bk1WeUWAt27kK/g3IVqFvIzge4pPZoKFRoGPbqkSzmRuYW1lbmp1bWJmIG1hbmlmZXN0amV4Y2x1c2lvbnOBomVzdGFydBi2Zmxlbmd0aBkeBAAAAj5qdW1iAAAAJ2p1bWRjMmNsABEAEIAAAKoAOJtxA2MycGEuY2xhaW0udjIAAAACD2Nib3KlY2FsZ2ZzaGEyNTZpc2lnbmF0dXJleE1zZWxmI2p1bWJmPS9jMnBhL3VybjpjMnBhOmMyOGE4MGFkLTgwNjctNGVmYi05MDhmLTc4NGQ2NGQ0YjQ3Ny9jMnBhLnNpZ25hdHVyZWppbnN0YW5jZUlEeCx4bXA6aWlkOjM2ZGRjY2E2LTI1ODktNDY5MS1hNjcyLWIxYWE5NTNmZGFmNXJjcmVhdGVkX2Fzc2VydGlvbnODomN1cmx4LXNlbGYjanVtYmY9YzJwYS5hc3NlcnRpb25zL2MycGEuaW5ncmVkaWVudC52M2RoYXNoWCCY1lIMjGHLS2G45t5/gyGurqeJLjQWQNotn7BKnOPcYKJjdXJseCpzZWxmI2p1bWJmPWMycGEuYXNzZXJ0aW9ucy9jMnBhLmFjdGlvbnMudjJkaGFzaFgggFxjDKRAYhTfWI7OuXOOyoXzDiPRvQiutuWydnBu4cSiY3VybHgpc2VsZiNqdW1iZj1jMnBhLmFzc2VydGlvbnMvYzJwYS5oYXNoLmRhdGFkaGFzaFgg5dkEMyB8r0zR0uxl6JwqB0uonSGHALX6CZ/J9ItjEtV0Y2xhaW1fZ2VuZXJhdG9yX2luZm+jZG5hbWVvQW50aHJvcGljIEZpbGVzZ3ZlcnNpb25lMS4wLjBrc3BlY1ZlcnNpb25lMi40LjAAABA4anVtYgAAAChqdW1kYzJjcwARABCAAACqADibcQNjMnBhLnNpZ25hdHVyZQAAABAIY2JvctKEWQISogEmGCFZAgowggIGMIIBjaADAgECAhRA5aAK7sI50L64g/oGQgU9Z1UTADAKBggqhkjOPQQDAzBJMRcwFQYDVQQKEw5BbnRocm9waWMsIFBCQzEuMCwGA1UEAxMlQW50aHJvcGljIENvbnRlbnQgQ3JlZGVudGlhbHMgUm9vdCBDQTAeFw0yNjA4MDcxODQzNTZaFw0yODA4MDYxOTQzNTZaMEQxFzAVBgNVBAoTDkFudGhyb3BpYywgUEJDMSkwJwYDVQQDEyBBbnRocm9waWMgQ2xhdWRlIENvbnRlbnQgU2lnbmluZzBZMBMGByqGSM49AgEGCCqGSM49AwEHA0IABJh6CmvLUBgFFNU0vUKlOVtE6djd17L5SuwX0LemFisBM3dkd/3cyjxFA3Qo5S46fX0/ihY0VZ7mfb9KF703t5OjWDBWMA4GA1UdDwEB/wQEAwIHgDAVBgNVHSUEDjAMBgorBgEEAYPoXgIBMAwGA1UdEwEB/wQCMAAwHwYDVR0jBBgwFoAUzlHiBIFOZFsj+OPEz5o+nMHXXMIwCgYIKoZIzj0EAwMDZwAwZAIwMXMdFJ4BetLLVY7ORuE9noqbbAZOZn/aArXyTwFAZfKrPzxF2vPoJNf1+UCdg1XGAjBwX1zd9WGqYkqmL5SFqw1QySjr1zJfpJM9+1rdDwSPLMOPOjKuiXjoU/pUUeG9RwmhY3BhZFkNngAAAAAAAAAAAAAAAAAAAAAAAAAAAAAAAAAAAAAAAAAAAAAAAAAAAAAAAAAAAAAAAAAAAAAAAAAAAAAAAAAAAAAAAAAAAAAAAAAAAAAAAAAAAAAAAAAAAAAAAAAAAAAAAAAAAAAAAAAAAAAAAAAAAAAAAAAAAAAAAAAAAAAAAAAAAAAAAAAAAAAAAAAAAAAAAAAAAAAAAAAAAAAAAAAAAAAAAAAAAAAAAAAAAAAAAAAAAAAAAAAAAAAAAAAAAAAAAAAAAAAAAAAAAAAAAAAAAAAAAAAAAAAAAAAAAAAAAAAAAAAAAAAAAAAAAAAAAAAAAAAAAAAAAAAAAAAAAAAAAAAAAAAAAAAAAAAAAAAAAAAAAAAAAAAAAAAAAAAAAAAAAAAAAAAAAAAAAAAAAAAAAAAAAAAAAAAAAAAAAAAAAAAAAAAAAAAAAAAAAAAAAAAAAAAAAAAAAAAAAAAAAAAAAAAAAAAAAAAAAAAAAAAAAAAAAAAAAAAAAAAAAAAAAAAAAAAAAAAAAAAAAAAAAAAAAAAAAAAAAAAAAAAAAAAAAAAAAAAAAAAAAAAAAAAAAAAAAAAAAAAAAAAAAAAAAAAAAAAAAAAAAAAAAAAAAAAAAAAAAAAAAAAAAAAAAAAAAAAAAAAAAAAAAAAAAAAAAAAAAAAAAAAAAAAAAAAAAAAAAAAAAAAAAAAAAAAAAAAAAAAAAAAAAAAAAAAAAAAAAAAAAAAAAAAAAAAAAAAAAAAAAAAAAAAAAAAAAAAAAAAAAAAAAAAAAAAAAAAAAAAAAAAAAAAAAAAAAAAAAAAAAAAAAAAAAAAAAAAAAAAAAAAAAAAAAAAAAAAAAAAAAAAAAAAAAAAAAAAAAAAAAAAAAAAAAAAAAAAAAAAAAAAAAAAAAAAAAAAAAAAAAAAAAAAAAAAAAAAAAAAAAAAAAAAAAAAAAAAAAAAAAAAAAAAAAAAAAAAAAAAAAAAAAAAAAAAAAAAAAAAAAAAAAAAAAAAAAAAAAAAAAAAAAAAAAAAAAAAAAAAAAAAAAAAAAAAAAAAAAAAAAAAAAAAAAAAAAAAAAAAAAAAAAAAAAAAAAAAAAAAAAAAAAAAAAAAAAAAAAAAAAAAAAAAAAAAAAAAAAAAAAAAAAAAAAAAAAAAAAAAAAAAAAAAAAAAAAAAAAAAAAAAAAAAAAAAAAAAAAAAAAAAAAAAAAAAAAAAAAAAAAAAAAAAAAAAAAAAAAAAAAAAAAAAAAAAAAAAAAAAAAAAAAAAAAAAAAAAAAAAAAAAAAAAAAAAAAAAAAAAAAAAAAAAAAAAAAAAAAAAAAAAAAAAAAAAAAAAAAAAAAAAAAAAAAAAAAAAAAAAAAAAAAAAAAAAAAAAAAAAAAAAAAAAAAAAAAAAAAAAAAAAAAAAAAAAAAAAAAAAAAAAAAAAAAAAAAAAAAAAAAAAAAAAAAAAAAAAAAAAAAAAAAAAAAAAAAAAAAAAAAAAAAAAAAAAAAAAAAAAAAAAAAAAAAAAAAAAAAAAAAAAAAAAAAAAAAAAAAAAAAAAAAAAAAAAAAAAAAAAAAAAAAAAAAAAAAAAAAAAAAAAAAAAAAAAAAAAAAAAAAAAAAAAAAAAAAAAAAAAAAAAAAAAAAAAAAAAAAAAAAAAAAAAAAAAAAAAAAAAAAAAAAAAAAAAAAAAAAAAAAAAAAAAAAAAAAAAAAAAAAAAAAAAAAAAAAAAAAAAAAAAAAAAAAAAAAAAAAAAAAAAAAAAAAAAAAAAAAAAAAAAAAAAAAAAAAAAAAAAAAAAAAAAAAAAAAAAAAAAAAAAAAAAAAAAAAAAAAAAAAAAAAAAAAAAAAAAAAAAAAAAAAAAAAAAAAAAAAAAAAAAAAAAAAAAAAAAAAAAAAAAAAAAAAAAAAAAAAAAAAAAAAAAAAAAAAAAAAAAAAAAAAAAAAAAAAAAAAAAAAAAAAAAAAAAAAAAAAAAAAAAAAAAAAAAAAAAAAAAAAAAAAAAAAAAAAAAAAAAAAAAAAAAAAAAAAAAAAAAAAAAAAAAAAAAAAAAAAAAAAAAAAAAAAAAAAAAAAAAAAAAAAAAAAAAAAAAAAAAAAAAAAAAAAAAAAAAAAAAAAAAAAAAAAAAAAAAAAAAAAAAAAAAAAAAAAAAAAAAAAAAAAAAAAAAAAAAAAAAAAAAAAAAAAAAAAAAAAAAAAAAAAAAAAAAAAAAAAAAAAAAAAAAAAAAAAAAAAAAAAAAAAAAAAAAAAAAAAAAAAAAAAAAAAAAAAAAAAAAAAAAAAAAAAAAAAAAAAAAAAAAAAAAAAAAAAAAAAAAAAAAAAAAAAAAAAAAAAAAAAAAAAAAAAAAAAAAAAAAAAAAAAAAAAAAAAAAAAAAAAAAAAAAAAAAAAAAAAAAAAAAAAAAAAAAAAAAAAAAAAAAAAAAAAAAAAAAAAAAAAAAAAAAAAAAAAAAAAAAAAAAAAAAAAAAAAAAAAAAAAAAAAAAAAAAAAAAAAAAAAAAAAAAAAAAAAAAAAAAAAAAAAAAAAAAAAAAAAAAAAAAAAAAAAAAAAAAAAAAAAAAAAAAAAAAAAAAAAAAAAAAAAAAAAAAAAAAAAAAAAAAAAAAAAAAAAAAAAAAAAAAAAAAAAAAAAAAAAAAAAAAAAAAAAAAAAAAAAAAAAAAAAAAAAAAAAAAAAAAAAAAAAAAAAAAAAAAAAAAAAAAAAAAAAAAAAAAAAAAAAAAAAAAAAAAAAAAAAAAAAAAAAAAAAAAAAAAAAAAAAAAAAAAAAAAAAAAAAAAAAAAAAAAAAAAAAAAAAAAAAAAAAAAAAAAAAAAAAAAAAAAAAAAAAAAAAAAAAAAAAAAAAAAAAAAAAAAAAAAAAAAAAAAAAAAAAAAAAAAAAAAAAAAAAAAAAAAAAAAAAAAAAAAAAAAAAAAAAAAAAAAAAAAAAAAAAAAAAAAAAAAAAAAAAAAAAAAAAAAAAAAAAAAAAAAAAAAAAAAAAAAAAAAAAAAAAAAAAAAAAAAAAAAAAAAAAAAAAAAAAAAAAAAAAAAAAAAAAAAAAAAAAAAAAAAAAAAAAAAAAAAAAAAAAAAAAAAAAAAAAAAAAAAAAAAAAAAAAAAAAAAAAAAAAAAAAAAAAAAAAAAAAAAAAAAAAAAAAAAAAAAAAAAAAAAAAAAAAAAAAAAAAAAAAAAAAAAAAAAAAAAAAAAAAAAAAAAAAAAAAAAAAAAAAAAAAAAAAAAAAAAAAAAAAAAAAAAAAAAAAAAAAAAAAAAAAAAAAAAAAAAAAAAAAAAAAAAAAAAAAAAAAAAAAAAAAAAAAAAAAAAAAAAAAAAAAAAAAAAAAAAAAAAAAAAAAAAAAAAAAAAAAAAAAAAAAAAAAAAAAAAAAAAAAAAAAAAAAAAAAAAAAAAAAAAAAAAAAAAAAAAAAAAAAAAAAAAAAAAAAAAAAAAAAAAAAAAAAAAAAAAAAAAAAAAAAAAAAAAAAAAAAAAAAAAAAAAAAAAAAAAAAAAAAAAAAAAAAAAAAAAAAAAAAAAAAAAAAAAAAAAAAAAAAAAAAAAAAAAAAAAAAAAAAAAAAAAAAAAAAAAAAAAAAAAAAAAAAAAAAAAAAAAAAAAAAAAAAAAAAAAAAAAAAAAAAAAAAAAAAAAAAAAAAAAAAAAAAAAAAAAAAAAAAAAAAAAAAAAAAAAAAAAAAAAAAAAAAAAAAAAAAAAAAAAAAAAAAAAAAAAAAAAAAAAAAAAAAAAAAAAAAAAAAAAAAAAAAAAAAAAAAAAAAAAAAAAAAAAAAAAAAAAAAAAAAAAAAAAAAAAAAAAAAAAAAAAAAAAAAAAAAAAAAAAAAAAAAAAAAAAAAAAAAAAAAAAAAAAAAAAAAAAAAAAAAAAAAAAAAAAAAAAAAAAAAAAAAAAAAAAAAAAAAAAAAAAAAAAAAAAAAAAAAAAAAAAAAAAAAAAAAAAAAAAAAAAAAAAAAAAAAAAAAAAAAAAAAAAAAAAAAAAAAAAAAAAAAAAAAAAAAAAAAAAAAAAAAAAAAAAAAAAAAAAAAAAAAAAAAAAAAAAAAAAAAAAAAAAAAAAAAAAAAAAAAAAAAAAAAAAAAAAAAAAAAAAAAAAAAAAAAAAAAAAAAAAAAAAAAAAAAAAAAAAAAAAAAAAAAAAAAAAAAAAAAAAAAAAAAAAAAAAAAAAAAAAAAAAAAAAAAAAAAAAAAAAAAAAAAAAAAAAAAAAAAAAAAAAAAAAAAAAAAAAAAAAAAAAAAAAAAAAAAAAAAAAAAAAAAAAAAAAAAAAAAAAAAAAAAAAAAAAAAAAAAAAAAAAAAAAAAAAAAAAAAAAAAAAAAAAAAAAAAAAAAAAAAAAAAAAAAAAAAAAAAAAAAAAAAAAAAAAAAAAAAAAAAAAAAAAAAAAAAAAAAAAAAAAAAAAAAAAAAAAAAAAAAAAAAAAAAAAAAAAAAAAAAAAAAAAAAAAAAAAAAAAAAAAAAAAAAAAAAAAAAAAAAAAAAAAAAAAAAAAAAAAAAAAAAAAAAAAAAAAAAAAAAAAAAAAAAAAAAAAAAAAAAAAAAAAAAAAAAAAAAAAAAAAAAAAAAAAAAAAAAAAAAAAAAAAAAAAAAAAAAAAAAAAAAAAAAAAAAAAAAAAAAAAAAAAAAAAAAAAAAAAAAAAAAAAAAAAAAAAAAAAAAAAAAAAAAAAAAAAAAAAAAAAAAAAAAAAAAAAAAAAAAAAAAAAAAPZYQN0H8wUzf5L8PI9cpQFdLbLvBJAh7hJAr4cLxLX5Fz38RCmZV8wYKhPp1IEIoRYmtw3gQq7MNqCiSIf97DXiCL8=</c2pa:manifest></metadata><path fill="#fff" d="M 358.21875 193.378906 L 358.21875 193.472656 C 358.191406 193.832031 358.039062 194.136719 357.757812 194.375 C 357.265625 194.796875 356.472656 194.941406 355.835938 194.941406 C 355.726562 194.941406 355.625 194.9375 355.53125 194.929688 L 353.1875 194.929688 C 351.566406 194.929688 349.777344 194.929688 348.53125 194.929688 C 347.96875 194.96875 347.121094 194.792969 346.609375 194.320312 C 346.335938 194.066406 346.191406 193.753906 346.1875 193.414062 C 346.320312 191.8125 348.007812 191.898438 348.726562 191.9375 L 351.195312 191.933594 C 353.007812 191.933594 355.089844 191.933594 356.359375 191.9375 C 356.894531 191.894531 357.40625 192.046875 357.753906 192.355469 C 358.042969 192.613281 358.203125 192.964844 358.21875 193.378906 M 354.410156 184.421875 C 354.410156 184.976562 353.957031 186.027344 352.257812 186.027344 C 350.585938 186.027344 350.144531 185.019531 350.144531 184.484375 L 350.144531 176.90625 C 350.144531 176.25 350.71875 175.269531 352.296875 175.269531 C 353.964844 175.269531 354.410156 176.238281 354.410156 176.8125 Z M 356.339844 172.863281 C 355.761719 172.519531 355.207031 172.285156 354.488281 172.09375 C 353.929688 171.929688 353.296875 171.835938 352.757812 171.835938 C 351.695312 171.796875 350.878906 171.867188 350.195312 172.0625 C 348.941406 172.378906 347.929688 172.945312 347.191406 173.742188 C 346.523438 174.433594 346.199219 175.273438 346.199219 176.308594 L 346.199219 184.738281 C 346.199219 185.246094 346.199219 185.773438 346.371094 186.269531 C 346.667969 187.109375 347.339844 187.898438 348.214844 188.433594 C 348.792969 188.78125 349.347656 189.011719 350.066406 189.203125 C 350.625 189.367188 351.257812 189.464844 351.796875 189.464844 C 351.980469 189.46875 352.160156 189.472656 352.332031 189.472656 C 353.140625 189.472656 353.792969 189.398438 354.359375 189.238281 C 355.613281 188.917969 356.625 188.351562 357.363281 187.558594 C 358.03125 186.867188 358.355469 186.027344 358.355469 184.988281 L 358.355469 176.5625 C 358.355469 176.050781 358.355469 175.527344 358.183594 175.027344 C 357.886719 174.1875 357.214844 173.398438 356.339844 172.863281 M 394.660156 193.246094 C 394.707031 193.636719 394.417969 194.183594 394.113281 194.445312 C 393.734375 194.699219 393.203125 194.863281 392.769531 194.863281 L 385.179688 194.863281 C 384.683594 194.863281 384.15625 194.628906 383.855469 194.429688 C 383.496094 194.152344 383.292969 193.761719 383.292969 193.355469 C 383.261719 192.777344 383.273438 192.222656 383.28125 191.683594 C 383.289062 191.417969 383.292969 191.15625 383.292969 190.894531 L 383.292969 173.222656 C 383.292969 172.394531 384.101562 171.746094 385.175781 171.710938 L 392.769531 171.710938 C 393.746094 171.710938 394.609375 172.429688 394.660156 173.277344 C 394.707031 173.621094 394.445312 174.214844 394.113281 174.503906 C 393.734375 174.757812 393.203125 174.921875 392.769531 174.921875 L 389.429688 174.921875 C 388.148438 174.921875 387.109375 175.699219 387.109375 176.65625 L 387.109375 179.804688 C 387.109375 180.761719 388.148438 181.539062 389.429688 181.539062 L 391.65625 181.539062 C 392.667969 181.539062 393.5 182.1875 393.546875 183.011719 C 393.59375 183.367188 393.328125 183.984375 392.996094 184.269531 C 392.621094 184.523438 392.089844 184.6875 391.65625 184.6875 L 389.429688 184.6875 C 388.148438 184.6875 387.109375 185.464844 387.109375 186.421875 L 387.109375 189.921875 C 387.109375 190.875 388.148438 191.652344 389.429688 191.652344 L 392.769531 191.652344 C 393.761719 191.652344 394.609375 192.367188 394.660156 193.246094 M 376.847656 172.46875 C 377.144531 172.882812 377.117188 173.265625 377.042969 173.617188 L 377.042969 173.632812 C 376.957031 174.074219 376.863281 174.476562 376.769531 174.878906 C 376.679688 175.277344 376.585938 175.679688 376.503906 176.089844 C 376.3125 176.9375 376.125 177.796875 375.9375 178.648438 C 375.753906 179.480469 375.570312 180.308594 375.390625 181.132812 C 375.160156 182.09375 374.945312 183.0625 374.726562 184.03125 C 374.511719 185 374.296875 185.96875 374.066406 186.929688 C 373.867188 187.804688 373.675781 188.679688 373.484375 189.558594 C 373.324219 190.292969 373.164062 191.035156 372.996094 191.78125 C 372.914062 192.113281 372.839844 192.441406 372.769531 192.773438 C 372.695312 193.105469 372.625 193.4375 372.542969 193.769531 C 372.4375 194.199219 371.992188 194.507812 371.636719 194.691406 C 371.3125 194.84375 370.894531 194.925781 370.453125 194.925781 C 369.917969 194.925781 369.476562 194.800781 369.199219 194.695312 C 368.824219 194.539062 368.382812 194.171875 368.277344 193.734375 C 368.070312 192.945312 367.902344 192.109375 367.742188 191.304688 C 367.554688 190.472656 367.359375 189.640625 367.164062 188.804688 C 366.96875 187.96875 366.769531 187.132812 366.585938 186.296875 C 366.359375 185.234375 366.125 184.171875 365.886719 183.113281 C 365.691406 182.226562 365.496094 181.34375 365.304688 180.46875 C 364.941406 178.890625 364.5625 177.257812 364.234375 175.648438 L 364.160156 175.339844 C 364.019531 174.75 363.882812 174.191406 363.78125 173.628906 C 363.703125 173.277344 363.671875 172.886719 363.96875 172.46875 C 364.167969 172.164062 364.570312 171.929688 365.09375 171.808594 C 365.601562 171.667969 366.179688 171.785156 366.550781 171.945312 C 366.84375 172.082031 367.359375 172.425781 367.464844 172.835938 L 367.46875 172.875 C 367.671875 173.6875 367.839844 174.515625 368 175.320312 L 369.117188 180.339844 C 369.355469 181.3125 369.730469 182.984375 370.023438 184.40625 C 370.066406 184.546875 370.246094 184.613281 370.410156 184.613281 C 370.570312 184.613281 370.753906 184.546875 370.796875 184.394531 C 371.105469 182.886719 371.53125 180.996094 371.78125 179.867188 L 371.824219 179.675781 C 372.191406 178.097656 372.566406 176.46875 372.898438 174.859375 C 373.0625 174.203125 373.226562 173.535156 373.351562 172.847656 C 373.464844 172.40625 373.96875 172.097656 374.257812 171.949219 C 374.640625 171.753906 375.203125 171.699219 375.722656 171.808594 C 376.15625 171.875 376.609375 172.140625 376.847656 172.46875 M 332.53125 181.886719 C 331.894531 181.910156 331.378906 181.773438 331.121094 181.523438 C 330.984375 181.390625 330.917969 181.230469 330.917969 181.035156 L 330.917969 176.019531 C 331.105469 175.472656 331.554688 175.203125 332.289062 175.203125 L 333.34375 175.203125 C 334.972656 175.359375 335.761719 176.144531 335.761719 177.601562 L 335.761719 179.804688 C 335.761719 180.210938 335.609375 180.65625 335.460938 180.882812 C 335.179688 181.285156 334.527344 181.765625 333.867188 181.859375 C 333.792969 181.871094 333.5 181.882812 333.242188 181.886719 C 333.050781 181.894531 332.851562 181.898438 332.691406 181.90625 L 332.691406 181.882812 Z M 339.402344 191.417969 C 339.207031 190.90625 339.011719 190.398438 338.828125 189.898438 C 338.636719 189.355469 338.335938 188.542969 338.019531 187.699219 C 337.863281 187.277344 337.703125 186.84375 337.546875 186.429688 C 337.085938 185.28125 337.414062 183.988281 338.425781 182.96875 C 339.191406 182.15625 339.492188 181.152344 339.703125 180.175781 C 339.988281 178.183594 339.757812 175.695312 339.191406 174.628906 C 338.621094 173.554688 337.925781 172.828125 337.136719 172.480469 C 336.207031 172.070312 335.175781 171.828125 334.003906 171.742188 C 333.785156 171.710938 333.570312 171.710938 333.320312 171.710938 L 330.925781 171.710938 C 328.5625 171.710938 327.097656 172.117188 327.097656 174.136719 L 327.097656 193.480469 C 327.097656 193.847656 327.335938 194.246094 327.695312 194.484375 C 328.015625 194.730469 328.550781 194.894531 329.035156 194.894531 C 330.089844 194.859375 330.917969 194.238281 330.917969 193.480469 L 330.917969 186.390625 C 330.917969 185.628906 331.394531 185.097656 332.082031 185.097656 L 332.121094 185.097656 C 333.011719 185.097656 333.371094 185.910156 333.464844 186.164062 C 333.621094 186.566406 333.707031 186.800781 333.796875 187.058594 C 333.871094 187.269531 333.953125 187.492188 334.082031 187.832031 C 334.441406 188.769531 334.789062 189.703125 335.136719 190.648438 C 335.386719 191.320312 335.636719 192 335.894531 192.679688 C 335.949219 192.824219 336.003906 192.976562 336.066406 193.128906 C 336.148438 193.339844 336.234375 193.5625 336.308594 193.789062 C 336.460938 194.175781 336.804688 194.503906 337.210938 194.65625 C 337.613281 194.863281 338.183594 194.933594 338.636719 194.828125 C 339.222656 194.6875 339.707031 194.34375 339.929688 193.90625 C 340.089844 193.597656 340.109375 193.265625 339.984375 192.953125 C 339.796875 192.445312 339.601562 191.933594 339.402344 191.417969 M 320.386719 174.902344 C 320.5625 175.398438 320.5625 175.925781 320.5625 176.433594 L 320.5625 177.222656 C 320.5625 177.945312 319.699219 178.605469 318.753906 178.605469 L 318.382812 178.605469 C 317.410156 178.605469 316.621094 177.984375 316.621094 177.222656 L 316.621094 176.6875 C 316.621094 176.113281 316.175781 175.140625 314.503906 175.140625 C 312.925781 175.140625 312.351562 176.121094 312.351562 176.78125 L 312.351562 189.921875 C 312.351562 190.453125 312.792969 191.464844 314.464844 191.464844 C 316.167969 191.464844 316.621094 190.414062 316.621094 189.855469 C 316.621094 189.710938 316.621094 189.59375 316.625 189.421875 C 316.636719 188.953125 316.660156 188.085938 316.660156 185.132812 C 316.660156 184.851562 316.359375 184.613281 315.929688 184.558594 L 315.925781 184.558594 C 315.0625 184.558594 314.359375 183.984375 314.308594 183.21875 C 314.308594 182.84375 314.515625 182.3125 314.90625 182.015625 C 315.226562 181.769531 315.761719 181.605469 316.238281 181.605469 L 318.671875 181.605469 C 319.714844 181.605469 320.5625 182.238281 320.5625 183.019531 L 320.550781 183.175781 C 320.535156 183.910156 320.546875 187.449219 320.558594 189.226562 C 320.558594 189.820312 320.5625 190.265625 320.5625 190.425781 C 320.5625 191.460938 320.234375 192.300781 319.566406 192.988281 C 318.839844 193.773438 317.800781 194.355469 316.566406 194.671875 C 316 194.828125 315.347656 194.90625 314.539062 194.90625 C 314.367188 194.90625 314.191406 194.902344 314.003906 194.894531 C 313.464844 194.894531 312.835938 194.800781 312.273438 194.636719 C 311.558594 194.445312 311.003906 194.214844 310.421875 193.863281 C 309.550781 193.332031 308.878906 192.542969 308.582031 191.703125 C 308.410156 191.207031 308.410156 190.679688 308.410156 190.171875 L 308.410156 176.183594 C 308.410156 175.148438 308.734375 174.308594 309.402344 173.617188 C 310.136719 172.820312 311.148438 172.257812 312.40625 171.9375 C 313.085938 171.742188 313.902344 171.671875 314.964844 171.710938 C 315.503906 171.710938 316.136719 171.804688 316.695312 171.96875 C 317.414062 172.164062 317.96875 172.394531 318.546875 172.742188 C 319.421875 173.273438 320.089844 174.0625 320.386719 174.902344 M 290.753906 174.269531 C 290.925781 174.769531 290.925781 175.292969 290.925781 175.804688 L 290.925781 176.589844 C 290.925781 177.316406 290.066406 177.976562 289.121094 177.976562 L 288.75 177.976562 C 287.777344 177.976562 286.984375 177.355469 286.984375 176.589844 L 286.984375 176.054688 C 286.984375 175.480469 286.539062 174.511719 284.871094 174.511719 C 283.292969 174.511719 282.71875 175.488281 282.71875 176.148438 L 282.71875 189.285156 C 282.71875 189.820312 283.160156 190.832031 284.832031 190.832031 C 286.535156 190.832031 286.984375 189.78125 286.984375 189.222656 C 286.984375 189.078125 286.988281 188.964844 286.992188 188.789062 C 287.003906 188.324219 287.027344 187.453125 287.027344 184.496094 C 287.027344 184.21875 286.726562 183.984375 286.296875 183.929688 L 286.292969 183.929688 C 285.429688 183.929688 284.726562 183.351562 284.675781 182.585938 C 284.675781 182.210938 284.878906 181.679688 285.273438 181.382812 C 285.59375 181.136719 286.128906 180.972656 286.605469 180.972656 L 289.039062 180.972656 C 290.082031 180.972656 290.925781 181.605469 290.925781 182.386719 L 290.917969 182.542969 C 290.898438 183.277344 290.914062 186.816406 290.921875 188.59375 C 290.925781 189.191406 290.925781 189.632812 290.925781 189.789062 C 290.925781 190.828125 290.601562 191.667969 289.933594 192.355469 C 289.199219 193.152344 288.1875 193.71875 286.933594 194.039062 C 286.367188 194.195312 285.714844 194.273438 284.902344 194.273438 C 284.734375 194.273438 284.554688 194.269531 284.371094 194.261719 C 283.832031 194.261719 283.199219 194.167969 282.640625 194.003906 C 281.925781 193.8125 281.371094 193.582031 280.789062 193.230469 C 279.914062 192.699219 279.246094 191.910156 278.949219 191.070312 C 278.773438 190.574219 278.773438 190.046875 278.773438 189.539062 L 278.773438 175.550781 C 278.773438 174.515625 279.097656 173.675781 279.765625 172.984375 C 280.496094 172.199219 281.535156 171.617188 282.769531 171.304688 C 283.667969 171.050781 284.664062 171.054688 285.332031 171.078125 C 285.871094 171.078125 286.503906 171.171875 287.0625 171.339844 C 287.777344 171.53125 288.332031 171.761719 288.914062 172.109375 C 289.789062 172.644531 290.457031 173.429688 290.753906 174.269531 M 272.113281 172.652344 L 272.113281 192.785156 C 272.113281 193.59375 271.269531 194.257812 270.1875 194.292969 C 269.6875 194.292969 269.160156 194.058594 268.859375 193.859375 C 268.5 193.582031 268.296875 193.191406 268.296875 192.785156 L 268.296875 172.652344 C 268.296875 171.828125 269.105469 171.179688 270.179688 171.140625 C 270.660156 171.140625 271.195312 171.304688 271.515625 171.550781 C 271.886719 171.832031 272.113281 172.253906 272.113281 172.652344 M 255.089844 183.691406 C 255.296875 183.691406 255.515625 183.707031 255.757812 183.738281 C 256.339844 183.847656 257.019531 184.308594 257.347656 184.804688 C 257.5 185.035156 257.652344 185.511719 257.652344 185.980469 L 257.652344 188.246094 C 257.652344 188.351562 257.65625 188.460938 257.664062 188.578125 C 257.6875 189.097656 257.714844 189.742188 257.289062 190.191406 C 256.902344 190.597656 256.175781 190.800781 255.125 190.800781 L 254.835938 190.800781 C 254.332031 190.800781 253.957031 190.675781 253.71875 190.425781 C 253.445312 190.132812 253.40625 189.71875 253.425781 189.414062 L 253.425781 185.003906 C 253.425781 184.585938 253.542969 184.277344 253.789062 184.0625 C 254.0625 183.816406 254.503906 183.691406 255.089844 183.691406 M 257.101562 179.792969 C 256.613281 180.304688 255.914062 180.558594 255.136719 180.5 L 254.835938 180.496094 C 253.953125 180.496094 253.425781 180.039062 253.425781 179.269531 L 253.425781 175.796875 C 253.410156 175.367188 253.519531 175.054688 253.753906 174.847656 C 253.996094 174.632812 254.378906 174.523438 254.914062 174.523438 C 255.171875 174.523438 255.46875 174.550781 255.800781 174.601562 C 256.234375 174.671875 257.652344 175.003906 257.652344 176.242188 L 257.652344 178.339844 C 257.710938 178.832031 257.503906 179.375 257.101562 179.792969 M 259.832031 182.382812 C 259.691406 182.292969 259.523438 182.152344 259.519531 182 C 259.515625 181.863281 259.640625 181.703125 259.886719 181.53125 C 260.710938 180.84375 261.285156 179.855469 261.425781 178.882812 C 261.589844 178.019531 261.632812 177.617188 261.632812 177.09375 C 261.632812 176.007812 261.582031 175.363281 261.078125 174.117188 C 259.480469 171.464844 257.738281 171.277344 256.582031 171.15625 L 256.457031 171.140625 C 256.066406 171.113281 255.464844 171.078125 254.714844 171.078125 L 253.476562 171.078125 C 253.410156 171.078125 253.328125 171.078125 253.234375 171.074219 C 252.480469 171.058594 250.910156 171.023438 250.125 171.792969 C 249.808594 172.101562 249.648438 172.507812 249.648438 173 L 249.648438 191.871094 C 249.648438 193.890625 251.113281 194.296875 253.476562 194.296875 C 254.304688 194.296875 255.085938 194.296875 255.886719 194.261719 C 257.222656 194.097656 258.253906 193.835938 259.03125 193.460938 C 259.835938 193.070312 260.527344 192.292969 261.089844 191.128906 C 261.417969 190.085938 261.914062 187.976562 261.589844 185.570312 C 261.246094 183.832031 260.804688 183.027344 259.832031 182.382812 M 542.214844 173.566406 L 542.207031 173.617188 C 542.121094 173.859375 542.03125 174.097656 541.933594 174.335938 C 541.84375 174.570312 541.753906 174.804688 541.671875 175.035156 L 540.554688 177.972656 C 540.101562 179.101562 539.644531 180.246094 539.234375 181.371094 C 538.953125 182.074219 538.714844 182.6875 538.535156 183.199219 C 538.019531 184.496094 537.757812 185.867188 537.757812 187.273438 L 537.757812 193.480469 C 537.757812 194.289062 536.914062 194.953125 535.835938 194.988281 C 535.332031 194.988281 534.804688 194.753906 534.503906 194.554688 C 534.144531 194.277344 533.941406 193.890625 533.941406 193.480469 C 533.914062 193.15625 533.921875 192.839844 533.933594 192.535156 C 533.9375 192.386719 533.941406 192.238281 533.941406 192.09375 L 533.941406 187.148438 C 533.941406 185.851562 533.679688 184.480469 533.167969 183.074219 C 532.820312 182.21875 532.496094 181.378906 532.34375 180.964844 C 531.921875 179.808594 531.441406 178.613281 531.023438 177.5625 C 530.753906 176.792969 530.464844 176.0625 530.160156 175.289062 L 529.949219 174.757812 C 529.855469 174.46875 529.738281 174.183594 529.613281 173.882812 L 529.496094 173.59375 C 529.386719 173.273438 529.414062 172.945312 529.578125 172.644531 C 529.804688 172.226562 530.277344 171.890625 530.839844 171.746094 C 531.273438 171.648438 531.882812 171.703125 532.300781 171.882812 C 532.691406 172.078125 532.980469 172.363281 533.128906 172.6875 L 533.175781 172.6875 L 533.210938 172.792969 C 533.378906 173.265625 533.542969 173.738281 533.742188 174.199219 L 534.859375 177.136719 C 534.980469 177.429688 535.097656 177.730469 535.210938 178.027344 C 535.324219 178.328125 535.4375 178.628906 535.558594 178.925781 C 535.601562 179.042969 535.746094 179.089844 535.871094 179.089844 C 535.996094 179.089844 536.140625 179.042969 536.179688 178.933594 L 536.378906 178.414062 C 536.601562 177.835938 536.8125 177.285156 537.003906 176.730469 C 537.191406 176.261719 537.382812 175.789062 537.570312 175.316406 C 537.753906 174.859375 537.9375 174.402344 538.121094 173.949219 C 538.183594 173.734375 538.265625 173.511719 538.347656 173.292969 C 538.414062 173.125 538.472656 172.960938 538.527344 172.796875 C 538.84375 172.007812 539.832031 171.570312 540.886719 171.742188 C 541.351562 171.816406 541.796875 172.132812 542.015625 172.398438 C 542.277344 172.730469 542.351562 173.183594 542.214844 173.566406 M 516.226562 181.886719 C 515.589844 181.90625 515.074219 181.773438 514.816406 181.523438 C 514.679688 181.390625 514.613281 181.230469 514.613281 181.035156 L 514.613281 176.019531 C 514.800781 175.472656 515.25 175.203125 515.984375 175.203125 L 517.042969 175.203125 C 518.667969 175.359375 519.460938 176.144531 519.460938 177.601562 L 519.460938 179.804688 C 519.460938 180.210938 519.304688 180.65625 519.15625 180.882812 C 518.875 181.285156 518.222656 181.765625 517.5625 181.859375 C 517.488281 181.871094 517.199219 181.882812 516.9375 181.886719 C 516.75 181.894531 516.550781 181.898438 516.386719 181.90625 L 516.386719 181.882812 Z M 523.097656 191.410156 C 522.90625 190.902344 522.710938 190.398438 522.527344 189.898438 C 522.332031 189.351562 522.027344 188.535156 521.714844 187.6875 C 521.554688 187.265625 521.394531 186.839844 521.246094 186.429688 C 520.78125 185.28125 521.109375 183.988281 522.121094 182.96875 C 522.886719 182.15625 523.1875 181.152344 523.398438 180.175781 C 523.683594 178.183594 523.453125 175.695312 522.886719 174.628906 C 522.316406 173.554688 521.625 172.828125 520.832031 172.480469 C 519.902344 172.070312 518.875 171.828125 517.699219 171.742188 C 517.480469 171.710938 517.265625 171.710938 517.015625 171.710938 L 514.621094 171.710938 C 512.257812 171.710938 510.796875 172.117188 510.796875 174.136719 L 510.796875 193.480469 C 510.796875 193.847656 511.03125 194.246094 511.390625 194.484375 C 511.714844 194.730469 512.25 194.894531 512.730469 194.894531 C 513.785156 194.859375 514.613281 194.238281 514.613281 193.480469 L 514.613281 186.390625 C 514.613281 185.628906 515.089844 185.097656 515.777344 185.097656 L 515.820312 185.097656 C 516.710938 185.097656 517.066406 185.910156 517.160156 186.164062 C 517.320312 186.566406 517.402344 186.800781 517.496094 187.0625 C 517.570312 187.269531 517.648438 187.496094 517.777344 187.832031 C 518.140625 188.777344 518.492188 189.71875 518.84375 190.667969 C 519.089844 191.335938 519.335938 192.007812 519.59375 192.679688 C 519.644531 192.824219 519.703125 192.976562 519.761719 193.128906 C 519.847656 193.339844 519.933594 193.5625 520.007812 193.789062 C 520.160156 194.175781 520.5 194.503906 520.90625 194.65625 C 521.308594 194.863281 521.882812 194.929688 522.332031 194.828125 L 522.335938 194.828125 C 522.917969 194.6875 523.402344 194.34375 523.628906 193.90625 C 523.789062 193.597656 523.804688 193.265625 523.679688 192.953125 C 523.492188 192.445312 523.296875 191.929688 523.097656 191.410156 M 496.957031 176.65625 L 496.957031 179.804688 C 496.957031 180.761719 497.996094 181.539062 499.273438 181.539062 L 501.503906 181.539062 C 502.515625 181.539062 503.34375 182.1875 503.390625 183.011719 C 503.4375 183.367188 503.171875 183.984375 502.84375 184.269531 C 502.464844 184.523438 501.933594 184.6875 501.503906 184.6875 L 499.273438 184.6875 C 497.996094 184.6875 496.957031 185.464844 496.957031 186.421875 L 496.957031 189.921875 C 496.957031 190.875 497.996094 191.652344 499.273438 191.652344 L 502.617188 191.652344 C 503.609375 191.652344 504.453125 192.367188 504.503906 193.246094 C 504.550781 193.636719 504.261719 194.183594 503.957031 194.445312 C 503.578125 194.703125 503.046875 194.863281 502.617188 194.863281 L 495.023438 194.863281 C 494.53125 194.863281 494.003906 194.628906 493.703125 194.429688 C 493.339844 194.152344 493.136719 193.761719 493.136719 193.355469 C 493.109375 192.777344 493.117188 192.222656 493.128906 191.683594 C 493.132812 191.417969 493.136719 191.15625 493.136719 190.894531 L 493.136719 173.222656 C 493.136719 172.394531 493.945312 171.746094 495.019531 171.710938 L 502.617188 171.710938 C 503.59375 171.710938 504.457031 172.429688 504.503906 173.273438 C 504.550781 173.621094 504.289062 174.214844 503.957031 174.503906 C 503.578125 174.757812 503.046875 174.921875 502.617188 174.921875 L 499.273438 174.921875 C 497.996094 174.921875 496.957031 175.699219 496.957031 176.65625 M 486.515625 173.292969 L 486.515625 173.316406 C 486.457031 173.910156 486.359375 174.488281 486.265625 175.046875 C 486.222656 175.289062 486.179688 175.527344 486.144531 175.765625 C 485.917969 177.332031 485.6875 178.875 485.460938 180.414062 L 485.402344 180.804688 C 485.113281 182.726562 484.824219 184.679688 484.535156 186.632812 C 484.40625 187.46875 484.277344 188.296875 484.148438 189.121094 L 483.792969 191.425781 C 483.75 191.753906 483.699219 192.09375 483.648438 192.433594 C 483.597656 192.769531 483.546875 193.105469 483.503906 193.4375 C 483.503906 193.695312 483.414062 193.953125 483.226562 194.203125 L 483.195312 194.234375 C 483.128906 194.285156 483.050781 194.375 482.976562 194.460938 C 482.632812 194.726562 482.136719 194.886719 481.585938 194.925781 C 481.523438 194.929688 481.4375 194.921875 481.378906 194.898438 C 481 194.921875 480.578125 194.859375 480.277344 194.726562 C 479.972656 194.578125 479.519531 194.242188 479.417969 193.867188 C 479.378906 193.832031 479.355469 193.785156 479.355469 193.730469 C 479.199219 192.992188 479.039062 192.1875 478.875 191.382812 L 478.863281 191.335938 C 478.699219 190.566406 478.539062 189.800781 478.378906 189.039062 C 478.1875 188.121094 477.996094 187.210938 477.792969 186.296875 C 477.5 184.734375 477.164062 183.164062 476.84375 181.699219 C 476.835938 181.65625 476.769531 181.65625 476.769531 181.65625 C 476.769531 181.65625 476.703125 181.65625 476.695312 181.691406 C 476.351562 183.164062 475.8125 185.675781 475.539062 186.988281 C 475.355469 187.785156 475.179688 188.582031 475.007812 189.375 C 474.832031 190.1875 474.652344 191 474.464844 191.8125 C 474.34375 192.472656 474.175781 193.148438 474.011719 193.800781 C 473.960938 194.21875 473.511719 194.535156 473.148438 194.722656 C 472.742188 194.914062 472.316406 194.921875 472.03125 194.894531 C 472.011719 194.894531 471.976562 194.894531 471.96875 194.898438 L 471.925781 194.929688 L 471.878906 194.925781 C 471.359375 194.925781 470.835938 194.703125 470.546875 194.484375 C 470.085938 194.171875 469.984375 193.757812 469.949219 193.433594 L 469.90625 193.105469 L 468.828125 185.863281 C 468.542969 183.9375 468.257812 182.007812 467.972656 180.113281 L 467.226562 175.292969 C 467.1875 174.957031 467.136719 174.628906 467.082031 174.296875 C 467.03125 173.964844 466.980469 173.636719 466.9375 173.304688 C 466.886719 172.878906 467.1875 172.449219 467.484375 172.191406 C 467.804688 171.949219 468.234375 171.816406 468.816406 171.773438 C 469.304688 171.773438 469.835938 171.9375 470.160156 172.183594 C 470.589844 172.515625 470.675781 172.90625 470.753906 173.25 L 470.757812 173.316406 L 471.125 175.71875 C 471.375 177.421875 471.621094 179.089844 471.867188 180.761719 L 471.890625 180.894531 C 472.007812 181.636719 472.125 182.382812 472.242188 183.152344 C 472.25 183.214844 472.5 183.214844 472.511719 183.152344 L 472.601562 182.726562 C 472.816406 181.730469 473.042969 180.703125 473.296875 179.703125 C 473.460938 178.90625 473.636719 178.105469 473.8125 177.300781 C 473.984375 176.496094 474.160156 175.695312 474.328125 174.890625 C 474.410156 174.554688 474.480469 174.21875 474.554688 173.882812 C 474.625 173.542969 474.699219 173.199219 474.78125 172.867188 C 474.882812 172.492188 475.289062 172.152344 475.648438 171.976562 C 476.035156 171.796875 476.460938 171.773438 476.75 171.773438 C 477.1875 171.738281 477.625 171.8125 477.96875 171.976562 C 478.339844 172.15625 478.792969 172.5 478.84375 172.886719 L 478.84375 172.9375 C 479.042969 173.714844 479.210938 174.542969 479.371094 175.34375 C 479.542969 176.199219 479.714844 177.042969 479.890625 177.882812 C 480.066406 178.726562 480.242188 179.570312 480.410156 180.40625 C 480.511719 180.828125 480.605469 181.265625 480.699219 181.703125 C 480.789062 182.132812 480.882812 182.5625 480.984375 182.984375 C 480.992188 183.023438 481.046875 183.050781 481.109375 183.050781 C 481.117188 183.050781 481.246094 183.046875 481.257812 182.964844 C 481.3125 182.523438 481.382812 182.070312 481.449219 181.613281 C 481.527344 181.101562 481.601562 180.585938 481.667969 180.070312 L 482.410156 175.246094 C 482.453125 174.921875 482.503906 174.59375 482.554688 174.261719 C 482.605469 173.929688 482.660156 173.597656 482.699219 173.265625 C 482.699219 173.007812 482.789062 172.75 482.976562 172.496094 C 483.03125 172.4375 483.085938 172.386719 483.140625 172.335938 C 483.1875 172.292969 483.234375 172.25 483.273438 172.203125 C 483.554688 171.957031 484.003906 171.816406 484.617188 171.773438 L 484.621094 171.773438 C 485.058594 171.773438 485.589844 171.9375 485.953125 172.179688 C 486.273438 172.421875 486.5625 172.878906 486.515625 173.292969 M 453.015625 176.65625 L 453.015625 179.804688 C 453.015625 180.761719 454.054688 181.539062 455.335938 181.539062 L 457.5625 181.539062 C 458.574219 181.539062 459.40625 182.1875 459.453125 183.011719 C 459.5 183.363281 459.234375 183.984375 458.90625 184.269531 C 458.527344 184.523438 457.992188 184.6875 457.5625 184.6875 L 455.335938 184.6875 C 454.054688 184.6875 453.015625 185.464844 453.015625 186.421875 L 453.015625 189.921875 C 453.015625 190.875 454.054688 191.652344 455.335938 191.652344 L 458.675781 191.652344 C 459.667969 191.652344 460.515625 192.367188 460.566406 193.246094 C 460.613281 193.636719 460.324219 194.183594 460.019531 194.445312 C 459.640625 194.703125 459.109375 194.863281 458.675781 194.863281 L 451.085938 194.863281 C 450.589844 194.863281 450.0625 194.628906 449.761719 194.429688 C 449.398438 194.152344 449.199219 193.761719 449.199219 193.355469 C 449.167969 192.777344 449.179688 192.222656 449.1875 191.683594 C 449.191406 191.417969 449.199219 191.15625 449.199219 190.894531 L 449.199219 173.222656 C 449.199219 172.394531 450.007812 171.746094 451.082031 171.710938 L 458.675781 171.710938 C 459.652344 171.710938 460.515625 172.429688 460.566406 173.273438 C 460.613281 173.621094 460.351562 174.214844 460.019531 174.503906 C 459.640625 174.757812 459.109375 174.921875 458.675781 174.921875 L 455.335938 174.921875 C 454.054688 174.921875 453.015625 175.699219 453.015625 176.65625 M 434.949219 181.886719 C 434.3125 181.90625 433.796875 181.773438 433.539062 181.523438 C 433.402344 181.390625 433.335938 181.230469 433.335938 181.035156 L 433.335938 176.019531 C 433.523438 175.472656 433.972656 175.203125 434.707031 175.203125 L 435.765625 175.203125 C 437.390625 175.359375 438.183594 176.144531 438.183594 177.601562 L 438.183594 179.804688 C 438.183594 180.210938 438.03125 180.65625 437.878906 180.882812 C 437.597656 181.285156 436.949219 181.765625 436.289062 181.859375 C 436.210938 181.871094 435.921875 181.882812 435.664062 181.886719 C 435.472656 181.894531 435.273438 181.898438 435.109375 181.90625 L 435.109375 181.882812 Z M 441.820312 191.410156 C 441.625 190.902344 441.433594 190.398438 441.25 189.898438 C 441.058594 189.355469 440.757812 188.554688 440.445312 187.714844 C 440.285156 187.285156 440.121094 186.847656 439.96875 186.429688 C 439.503906 185.28125 439.832031 183.988281 440.84375 182.96875 C 441.609375 182.15625 441.910156 181.152344 442.121094 180.175781 C 442.40625 178.183594 442.175781 175.695312 441.609375 174.628906 C 441.039062 173.554688 440.347656 172.828125 439.554688 172.480469 C 438.625 172.070312 437.597656 171.828125 436.421875 171.742188 C 436.203125 171.710938 435.988281 171.710938 435.738281 171.710938 L 433.34375 171.710938 C 430.980469 171.710938 429.519531 172.117188 429.519531 174.136719 L 429.519531 193.480469 C 429.519531 193.847656 429.753906 194.246094 430.117188 194.484375 C 430.4375 194.730469 430.972656 194.894531 431.453125 194.894531 C 432.507812 194.859375 433.335938 194.238281 433.335938 193.480469 L 433.335938 186.390625 C 433.335938 185.628906 433.8125 185.097656 434.5 185.097656 L 434.542969 185.097656 C 435.433594 185.097656 435.792969 185.910156 435.882812 186.164062 C 436.042969 186.5625 436.125 186.796875 436.214844 187.054688 C 436.292969 187.265625 436.371094 187.492188 436.5 187.832031 C 436.863281 188.773438 437.210938 189.710938 437.558594 190.65625 C 437.808594 191.328125 438.058594 192.003906 438.3125 192.679688 C 438.367188 192.824219 438.425781 192.976562 438.484375 193.128906 C 438.566406 193.339844 438.65625 193.5625 438.730469 193.789062 C 438.882812 194.175781 439.222656 194.503906 439.628906 194.65625 C 440.03125 194.863281 440.605469 194.933594 441.054688 194.828125 C 441.640625 194.6875 442.125 194.34375 442.347656 193.90625 C 442.511719 193.597656 442.527344 193.265625 442.402344 192.953125 C 442.214844 192.445312 442.019531 191.929688 441.820312 191.410156 M 418.652344 180.425781 C 418.164062 180.9375 417.464844 181.1875 416.6875 181.132812 L 416.386719 181.132812 C 415.503906 181.132812 414.976562 180.671875 414.976562 179.902344 L 414.976562 176.429688 C 414.964844 175.996094 415.070312 175.6875 415.304688 175.480469 C 415.546875 175.265625 415.929688 175.15625 416.464844 175.15625 C 416.726562 175.15625 417.019531 175.183594 417.351562 175.234375 C 417.789062 175.304688 419.203125 175.636719 419.203125 176.875 L 419.203125 178.972656 C 419.261719 179.464844 419.054688 180.007812 418.652344 180.425781 M 416.386719 191.433594 C 415.882812 191.433594 415.507812 191.308594 415.273438 191.058594 C 414.996094 190.765625 414.960938 190.351562 414.976562 190.046875 L 414.976562 185.636719 C 414.976562 185.21875 415.09375 184.910156 415.339844 184.691406 C 415.617188 184.449219 416.054688 184.324219 416.640625 184.324219 C 416.847656 184.324219 417.070312 184.339844 417.308594 184.371094 C 417.890625 184.480469 418.574219 184.9375 418.898438 185.4375 C 419.050781 185.667969 419.203125 186.144531 419.203125 186.609375 L 419.203125 188.878906 C 419.203125 188.980469 419.207031 189.09375 419.214844 189.210938 C 419.238281 189.730469 419.269531 190.375 418.84375 190.824219 C 418.457031 191.226562 417.726562 191.433594 416.675781 191.433594 Z M 421.382812 183.015625 C 421.242188 182.925781 421.074219 182.785156 421.074219 182.632812 C 421.070312 182.496094 421.191406 182.335938 421.4375 182.160156 C 422.261719 181.476562 422.835938 180.484375 422.976562 179.515625 C 423.140625 178.652344 423.1875 178.253906 423.1875 177.726562 C 423.1875 176.640625 423.132812 175.992188 422.628906 174.746094 C 421.035156 172.097656 419.289062 171.910156 418.136719 171.789062 L 418.007812 171.773438 C 417.617188 171.746094 417.011719 171.710938 416.265625 171.710938 L 415.027344 171.710938 C 414.960938 171.710938 414.878906 171.710938 414.789062 171.707031 C 414.035156 171.691406 412.464844 171.65625 411.675781 172.425781 C 411.359375 172.734375 411.199219 173.140625 411.199219 173.632812 L 411.199219 192.503906 C 411.199219 194.523438 412.664062 194.925781 415.027344 194.925781 C 415.855469 194.925781 416.640625 194.925781 417.4375 194.894531 C 418.777344 194.730469 419.804688 194.46875 420.582031 194.09375 C 421.386719 193.703125 422.078125 192.925781 422.644531 191.761719 C 422.96875 190.71875 423.46875 188.609375 423.144531 186.203125 C 422.800781 184.464844 422.355469 183.660156 421.382812 183.015625 M 540.476562 193.011719 L 540.144531 193.011719 L 540.144531 192.652344 L 540.476562 192.652344 C 540.71875 192.652344 540.71875 193.011719 540.476562 193.011719 M 540.476562 192.285156 L 539.734375 192.285156 L 539.734375 193.84375 L 540.144531 193.84375 L 540.144531 193.359375 L 540.292969 193.359375 L 540.660156 193.84375 L 541.101562 193.84375 L 541.101562 193.753906 L 540.714844 193.277344 C 541.28125 193.152344 541.167969 192.285156 540.476562 192.285156 M 540.347656 194.214844 C 539.65625 194.214844 539.265625 193.707031 539.261719 193.066406 C 539.265625 192.425781 539.65625 191.917969 540.347656 191.917969 C 541.039062 191.917969 541.429688 192.425781 541.429688 193.066406 C 541.429688 193.707031 541.039062 194.214844 540.347656 194.214844 M 540.347656 191.515625 C 539.363281 191.515625 538.8125 192.226562 538.8125 193.066406 C 538.8125 193.90625 539.363281 194.617188 540.347656 194.617188 C 541.332031 194.617188 541.882812 193.90625 541.882812 193.066406 C 541.882812 192.226562 541.332031 191.515625 540.347656 191.515625"/></svg>